<svg xmlns="http://www.w3.org/2000/svg" viewBox="0 0 1200 700" role="img" aria-label="Elegant about page illustration">
  <defs>
    <linearGradient id="bg4" x1="0" y1="0" x2="1" y2="1">
      <stop offset="0%" stop-color="#fdf7f2" />
      <stop offset="100%" stop-color="#ebdfd1" />
    </linearGradient>
    <linearGradient id="highlight" x1="0" y1="0" x2="1" y2="1">
      <stop offset="0%" stop-color="#ffefce" />
      <stop offset="100%" stop-color="#f2d4a1" />
    </linearGradient>
  </defs>
  <rect width="1200" height="700" fill="url(#bg4)" rx="30" />
  <rect x="220" y="180" width="760" height="420" rx="36" fill="#ffffff" opacity="0.96" />
  <rect x="280" y="240" width="260" height="300" rx="28" fill="#f7f0e7" />
  <rect x="560" y="260" width="320" height="340" rx="28" fill="#f2f2f2" />
  <path d="M320 320 c40 -40 80 -40 120 0" stroke="#c7a36a" stroke-width="22" fill="none" stroke-linecap="round" />
  <path d="M360 420 c20 -20 40 -20 60 0" stroke="#c7a36a" stroke-width="20" fill="none" stroke-linecap="round" />
  <rect x="620" y="320" width="180" height="26" rx="13" fill="#d8b47d" />
  <rect x="620" y="370" width="240" height="20" rx="10" fill="#d1c0ad" />
  <rect x="620" y="410" width="220" height="20" rx="10" fill="#d1c0ad" />
  <rect x="620" y="450" width="150" height="20" rx="10" fill="#d1c0ad" />
  <circle cx="860" cy="320" r="32" fill="#f8e7c7" />
  <path d="M840 300 l20 20" stroke="#c9a870" stroke-width="12" stroke-linecap="round" />
  <path d="M860 300 l-20 20" stroke="#c9a870" stroke-width="12" stroke-linecap="round" />
  <text x="240" y="620" font-family="Inter, sans-serif" font-weight="700" font-size="52" fill="#7a5a3c">Practical insight, elegant delivery</text>
</svg>